<svg xmlns="http://www.w3.org/2000/svg" viewBox="0 0 512 512" width="512" height="512">
  <!-- Definitions -->
  <defs>
    <linearGradient id="bgGradient" x1="0%" y1="0%" x2="100%" y2="100%">
      <stop offset="0%" stop-color="#f1f5f9" />
      <stop offset="100%" stop-color="#e2e8f0" />
    </linearGradient>
    
    <linearGradient id="trophyGradient" x1="0%" y1="0%" x2="100%" y2="100%">
      <stop offset="0%" stop-color="#facc15" />
      <stop offset="100%" stop-color="#eab308" />
    </linearGradient>
    
    <linearGradient id="starGradient" x1="0%" y1="0%" x2="100%" y2="100%">
      <stop offset="0%" stop-color="#f87171" />
      <stop offset="100%" stop-color="#ef4444" />
    </linearGradient>
    
    <filter id="shadow" x="-20%" y="-20%" width="140%" height="140%">
      <feGaussianBlur in="SourceAlpha" stdDeviation="8" />
      <feOffset dx="0" dy="4" result="offsetblur" />
      <feComponentTransfer>
        <feFuncA type="linear" slope="0.2" />
      </feComponentTransfer>
      <feMerge>
        <feMergeNode />
        <feMergeNode in="SourceGraphic" />
      </feMerge>
    </filter>
    
    <clipPath id="roundedRect">
      <rect x="16" y="16" width="480" height="480" rx="64" ry="64" />
    </clipPath>
  </defs>

  <!-- Background with rounded corners -->
  <rect x="16" y="16" width="480" height="480" rx="64" ry="64" fill="url(#bgGradient)" filter="url(#shadow)" />
  
  <!-- Trophy icon -->
  <g transform="translate(256, 220)" filter="url(#shadow)">
    <!-- Trophy cup -->
    <path d="M-80 -20 L80 -20 L70 100 L-70 100 Z" fill="url(#trophyGradient)" />
    <rect x="-90" y="-60" width="180" height="40" rx="10" ry="10" fill="url(#trophyGradient)" />
    
    <!-- Trophy handles -->
    <path d="M-80 -20 C-140 -20, -140 40, -80 40" stroke="url(#trophyGradient)" stroke-width="20" fill="none" />
    <path d="M80 -20 C140 -20, 140 40, 80 40" stroke="url(#trophyGradient)" stroke-width="20" fill="none" />
    
    <!-- Trophy base -->
    <rect x="-50" y="100" width="100" height="20" fill="url(#trophyGradient)" />
    <rect x="-70" y="120" width="140" height="20" rx="5" ry="5" fill="url(#trophyGradient)" />
  </g>
  
  <!-- Star burst -->
  <g transform="translate(256, 140)" filter="url(#shadow)">
    <path d="M0 -70 L15 -15 L70 -15 L25 20 L40 70 L0 40 L-40 70 L-25 20 L-70 -15 L-15 -15 Z" fill="url(#starGradient)" />
    <animateTransform 
      attributeName="transform" 
      type="rotate" 
      from="0 256 140" 
      to="360 256 140" 
      dur="20s" 
      repeatCount="indefinite" 
      additive="sum" />
  </g>
  
  <!-- High Score text -->
  <g transform="translate(256, 380)">
    <rect x="-140" y="-30" width="280" height="60" rx="12" ry="12" fill="white" opacity="0.9" />
    <text x="0" y="10" font-family="Arial, sans-serif" font-size="28" font-weight="bold" text-anchor="middle" fill="#7e22ce">HIGH SCORE</text>
  </g>
  
  <!-- Number 1 -->
  <g transform="translate(256, 220)">
    <text x="0" y="0" font-family="Arial, sans-serif" font-size="120" font-weight="bold" text-anchor="middle" fill="white" stroke="#0f172a" stroke-width="2">1</text>
  </g>
</svg> 