<svg xmlns="http://www.w3.org/2000/svg" width="512" height="512" viewBox="0 0 512 512">
  <!-- Definitions -->
  <defs>
    <linearGradient id="bgGradient" x1="0%" y1="0%" x2="100%" y2="100%">
      <stop offset="0%" stop-color="#111827" />
      <stop offset="100%" stop-color="#0f172a" />
    </linearGradient>
    
    <linearGradient id="titleGradient" x1="0%" y1="0%" x2="100%" y2="0%">
      <stop offset="0%" stop-color="#4f46e5" />
      <stop offset="100%" stop-color="#818cf8" />
    </linearGradient>
    
    <linearGradient id="shipGradient" x1="0%" y1="0%" x2="100%" y2="100%">
      <stop offset="0%" stop-color="#4338ca" />
      <stop offset="100%" stop-color="#6366f1" />
    </linearGradient>
    
    <linearGradient id="alienGradient1" x1="0%" y1="0%" x2="100%" y2="100%">
      <stop offset="0%" stop-color="#10b981" />
      <stop offset="100%" stop-color="#34d399" />
    </linearGradient>
    
    <linearGradient id="alienGradient2" x1="0%" y1="0%" x2="100%" y2="100%">
      <stop offset="0%" stop-color="#0891b2" />
      <stop offset="100%" stop-color="#22d3ee" />
    </linearGradient>
    
    <linearGradient id="alienGradient3" x1="0%" y1="0%" x2="100%" y2="100%">
      <stop offset="0%" stop-color="#7c3aed" />
      <stop offset="100%" stop-color="#a78bfa" />
    </linearGradient>
    
    <filter id="glow" x="-20%" y="-20%" width="140%" height="140%">
      <feGaussianBlur stdDeviation="5" result="blur" />
      <feComposite in="SourceGraphic" in2="blur" operator="over" />
    </filter>
    
    <filter id="shadow" x="-10%" y="-10%" width="120%" height="120%">
      <feDropShadow dx="0" dy="4" stdDeviation="8" flood-color="#000" flood-opacity="0.5" />
    </filter>
    
    <!-- Star animation -->
    <filter id="starGlow" x="-100%" y="-100%" width="300%" height="300%">
      <feGaussianBlur stdDeviation="2" result="blur" />
      <feComposite in="SourceGraphic" in2="blur" operator="over" />
    </filter>
  </defs>
  
  <!-- Background -->
  <rect width="512" height="512" rx="24" fill="url(#bgGradient)" />
  
  <!-- Stars -->
  <g class="stars">
    <circle cx="60" cy="80" r="1.5" fill="white" opacity="0.7">
      <animate attributeName="opacity" values="0.7;1;0.7" dur="3s" repeatCount="indefinite" />
    </circle>
    <circle cx="160" cy="40" r="2" fill="white" opacity="0.8">
      <animate attributeName="opacity" values="0.8;1;0.8" dur="2.5s" repeatCount="indefinite" />
    </circle>
    <circle cx="280" cy="70" r="1.8" fill="white" opacity="0.6">
      <animate attributeName="opacity" values="0.6;1;0.6" dur="4s" repeatCount="indefinite" />
    </circle>
    <circle cx="400" cy="120" r="1.5" fill="white" opacity="0.7">
      <animate attributeName="opacity" values="0.7;1;0.7" dur="3.2s" repeatCount="indefinite" />
    </circle>
    <circle cx="450" cy="50" r="2" fill="white" opacity="0.8">
      <animate attributeName="opacity" values="0.8;1;0.8" dur="2.8s" repeatCount="indefinite" />
    </circle>
    <circle cx="100" cy="150" r="1.5" fill="white" opacity="0.7">
      <animate attributeName="opacity" values="0.7;1;0.7" dur="3.5s" repeatCount="indefinite" />
    </circle>
    <circle cx="300" cy="180" r="1.8" fill="white" opacity="0.6">
      <animate attributeName="opacity" values="0.6;1;0.6" dur="4.2s" repeatCount="indefinite" />
    </circle>
    <circle cx="420" cy="200" r="1.5" fill="white" opacity="0.7">
      <animate attributeName="opacity" values="0.7;1;0.7" dur="3.8s" repeatCount="indefinite" />
    </circle>
    <circle cx="200" cy="220" r="2" fill="white" opacity="0.8">
      <animate attributeName="opacity" values="0.8;1;0.8" dur="2.9s" repeatCount="indefinite" />
    </circle>
    <circle cx="80" cy="280" r="1.8" fill="white" opacity="0.6">
      <animate attributeName="opacity" values="0.6;1;0.6" dur="3.7s" repeatCount="indefinite" />
    </circle>
    <circle cx="350" cy="260" r="1.5" fill="white" opacity="0.7">
      <animate attributeName="opacity" values="0.7;1;0.7" dur="3.3s" repeatCount="indefinite" />
    </circle>
    <circle cx="450" cy="300" r="2" fill="white" opacity="0.8">
      <animate attributeName="opacity" values="0.8;1;0.8" dur="2.7s" repeatCount="indefinite" />
    </circle>
  </g>
  
  <!-- Title -->
  <g transform="translate(256, 64)" text-anchor="middle">
    <text font-family="'Arial', sans-serif" font-size="36" font-weight="bold" fill="url(#titleGradient)" filter="url(#glow)">SPACE</text>
    <text y="40" font-family="'Arial', sans-serif" font-size="36" font-weight="bold" fill="url(#titleGradient)" filter="url(#glow)">INVADERS</text>
  </g>
  
  <!-- Player Ship -->
  <g transform="translate(256, 430)" filter="url(#shadow)">
    <!-- Ship Body -->
    <path d="M0,-20 L25,15 L-25,15 Z" fill="url(#shipGradient)" />
    
    <!-- Engine Glow -->
    <path d="M-10,15 L-5,25 L5,25 L10,15 Z" fill="#818cf8" opacity="0.8">
      <animate attributeName="opacity" values="0.8;1;0.8" dur="0.5s" repeatCount="indefinite" />
    </path>
    
    <!-- Laser Shot -->
    <line x1="0" y1="-20" x2="0" y2="-120" stroke="#ef4444" stroke-width="3" stroke-linecap="round">
      <animate attributeName="y2" values="-120;-180;-120" dur="1s" repeatCount="indefinite" />
      <animate attributeName="opacity" values="1;0.5;1" dur="1s" repeatCount="indefinite" />
    </line>
  </g>
  
  <!-- Alien Invaders (Type 1) -->
  <g transform="translate(130, 150)" filter="url(#shadow)">
    <rect width="40" height="30" rx="4" fill="url(#alienGradient1)" />
    <circle cx="10" cy="12" r="5" fill="#111827" />
    <circle cx="30" cy="12" r="5" fill="#111827" />
    <rect x="12" y="22" width="16" height="3" rx="1" fill="#111827" />
    
    <animateTransform attributeName="transform" type="translate" 
      values="130,150; 140,150; 130,150; 120,150; 130,150" 
      dur="2s" repeatCount="indefinite" />
  </g>
  
  <!-- Alien Invaders (Type 2) -->
  <g transform="translate(256, 150)" filter="url(#shadow)">
    <ellipse cx="0" cy="0" rx="25" ry="20" fill="url(#alienGradient2)" />
    
    <!-- Tentacles -->
    <path d="M-20,0 L-30,-5 M-20,10 L-30,15 M20,0 L30,-5 M20,10 L30,15" 
      stroke="url(#alienGradient2)" stroke-width="3" stroke-linecap="round" />
    
    <!-- Eyes -->
    <circle cx="-10" cy="-5" r="5" fill="white" />
    <circle cx="10" cy="-5" r="5" fill="white" />
    <circle cx="-10" cy="-5" r="2" fill="black" />
    <circle cx="10" cy="-5" r="2" fill="black" />
    
    <animateTransform attributeName="transform" type="translate" 
      values="256,150; 266,150; 256,150; 246,150; 256,150" 
      dur="2.2s" repeatCount="indefinite" />
  </g>
  
  <!-- Alien Invaders (Type 3) -->
  <g transform="translate(382, 150)" filter="url(#shadow)">
    <ellipse cx="0" cy="0" rx="25" ry="20" fill="url(#alienGradient3)" />
    
    <!-- Pincers -->
    <path d="M-25,0 L-35,-10 L-30,0 L-35,10 Z" fill="url(#alienGradient3)" />
    <path d="M25,0 L35,-10 L30,0 L35,10 Z" fill="url(#alienGradient3)" />
    
    <!-- Eyes -->
    <ellipse cx="-10" cy="-5" rx="3" ry="6" fill="white" />
    <ellipse cx="10" cy="-5" rx="3" ry="6" fill="white" />
    <ellipse cx="-10" cy="-5" rx="1.5" ry="3" fill="black" />
    <ellipse cx="10" cy="-5" rx="1.5" ry="3" fill="black" />
    
    <animateTransform attributeName="transform" type="translate" 
      values="382,150; 392,150; 382,150; 372,150; 382,150" 
      dur="1.8s" repeatCount="indefinite" />
  </g>
  
  <!-- Shield Blocks -->
  <g transform="translate(130, 330)" filter="url(#shadow)">
    <rect width="60" height="40" rx="5" fill="#3b82f6" opacity="0.8" />
    <rect x="20" y="25" width="20" height="15" fill="#111827" />
  </g>
  
  <g transform="translate(382, 330)" filter="url(#shadow)">
    <rect width="60" height="40" rx="5" fill="#3b82f6" opacity="0.8" />
    <rect x="20" y="25" width="20" height="15" fill="#111827" />
  </g>
  
  <!-- Explosion -->
  <g transform="translate(256, 230)">
    <circle cx="0" cy="0" r="20" fill="#f59e0b" opacity="0.9" filter="url(#glow)">
      <animate attributeName="r" values="20;30;20" dur="0.8s" repeatCount="indefinite" />
      <animate attributeName="opacity" values="0.9;0.3;0.9" dur="0.8s" repeatCount="indefinite" />
    </circle>
    <path d="M0,0 L10,-25 M0,0 L25,-10 M0,0 L25,10 M0,0 L10,25 M0,0 L-10,25 M0,0 L-25,10 M0,0 L-25,-10 M0,0 L-10,-25" 
      stroke="#f59e0b" stroke-width="3" stroke-linecap="round">
      <animate attributeName="stroke-width" values="3;5;3" dur="0.8s" repeatCount="indefinite" />
    </path>
  </g>
  
  <!-- Game Score Panel -->
  <g transform="translate(256, 490)" text-anchor="middle">
    <rect x="-100" y="-20" width="200" height="40" rx="5" fill="rgba(0,0,0,0.6)" />
    <text font-family="'Arial', sans-serif" font-size="16" font-weight="bold" fill="white">SCORE: 12500</text>
  </g>
</svg> 